# xmcd
#
# Track frame offsets: 
#        150
#        16298
#        32117
#        48348
#        64852
#        78607
#        95494
#        112703
#        127816
#        142041
#        157841
#
# Disc length: 2408 seconds
#
# Revision: 2
# Processed by: cddbd v1.5.2PL0 Copyright (c) Steve Scherf et al.
# Submitted via: ExactAudioCopy v1.0b3
#
DISCID=8409660b
DTITLE=The McClymonts - Two Worlds Collide
DYEAR=2012
DGENRE=Country
TTITLE0=Two Worlds Collide
TTITLE1=The Easy Part
TTITLE2=Everybody's Looking To Fall In Love
TTITLE3=Piece Of Me
TTITLE4=Sweet
TTITLE5=Where You Are
TTITLE6=Little Old Beat Up Heart
TTITLE7=Those Summer Days
TTITLE8=How Long Have You Known
TTITLE9=This Ain't Over
TTITLE10=Feel Like Going Home
EXTD=
EXTT0=
EXTT1=
EXTT2=
EXTT3=
EXTT4=
EXTT5=
EXTT6=
EXTT7=
EXTT8=
EXTT9=
EXTT10=
PLAYORDER=
